<?xml version="1.0" standalone="no"?>
<!DOCTYPE svg PUBLIC "-//W3C//DTD SVG 1.1//EN" "http://www.w3.org/Graphics/SVG/1.1/DTD/svg11.dtd" >
<svg xmlns="http://www.w3.org/2000/svg">
<metadata>
This is a custom SVG webfont generated by Font Squirrel.
Copyright   : Copyright by dustBUST Fonts 2000
</metadata>
<defs>
<font id="AerialRegular" horiz-adv-x="1966" >
<font-face units-per-em="2048" ascent="1638" descent="-410" />
<missing-glyph horiz-adv-x="500" />
<glyph unicode=" " />
<glyph unicode="!" horiz-adv-x="655" d="M0 0h328v328h-328v-328zM0 410h328v1146h-328v-1146z" />
<glyph unicode="&#x22;" horiz-adv-x="1064" d="M0 1147h328v409h-328v-409zM410 1147h327v409h-327v-409z" />
<glyph unicode="#" />
<glyph unicode="$" d="M0 0h655v-82h328v82h655v983h-655v246h655v327h-655v82h-328v-82h-655v-901h655v-327h-655v-328zM328 983v246h327v-246h-327zM983 328v327h328v-327h-328z" />
<glyph unicode="%" />
<glyph unicode="&#x26;" d="M0 0h1638v328h-327v327h327v328h-327v573h-1311v-1556zM328 328v327h655v-327h-655zM328 983v246h655v-246h-655z" />
<glyph unicode="'" horiz-adv-x="655" d="M0 1147h328v409h-328v-409z" />
<glyph unicode="(" horiz-adv-x="983" d="M0 0h655v328h-327v901h327v327h-655v-1556z" />
<glyph unicode=")" horiz-adv-x="983" d="M0 0v328h328v901h-328v327h655v-1556h-655z" />
<glyph unicode="*" horiz-adv-x="1310" d="M0 328l328 219v-219h327v219l328 -219v327l-246 164l246 164v328l-328 -219v219h-327v-219l-328 219v-328l246 -164l-246 -164v-327z" />
<glyph unicode="+" horiz-adv-x="1310" d="M0 655h328v-327h327v327h328v328h-328v328h-327v-328h-328v-328z" />
<glyph unicode="," horiz-adv-x="655" d="M0 328h328v-656h-328v656z" />
<glyph unicode="-" horiz-adv-x="1310" d="M0 655h983v328h-983v-328z" />
<glyph unicode="." horiz-adv-x="655" d="M0 0h328v328h-328v-328z" />
<glyph unicode="/" horiz-adv-x="983" d="M0 0h328l327 1556h-327z" />
<glyph unicode="0" d="M0 0h1638v1556h-1638v-1556zM328 328v901h983v-901h-983z" />
<glyph unicode="1" horiz-adv-x="983" d="M0 1229h328v-1229h327v1556h-655v-327z" />
<glyph unicode="2" d="M0 0h1638v328h-1310v327h1310v901h-1638v-327h1311v-246h-1311v-983z" />
<glyph unicode="3" d="M0 0h1638v1556h-1638v-327h1311v-246h-1311v-328h1311v-327h-1311v-328z" />
<glyph unicode="4" d="M0 655h1311v-655h327v1556h-327v-573h-983v573h-328v-901z" />
<glyph unicode="5" d="M0 0h1638v983h-1310v246h1310v327h-1638v-901h1311v-327h-1311v-328z" />
<glyph unicode="6" d="M0 0h1638v983h-1310v246h1310v327h-1638v-1556zM328 328v327h983v-327h-983z" />
<glyph unicode="7" d="M0 1229h1311v-1229h327v1556h-1638v-327z" />
<glyph unicode="8" d="M0 0h1638v1556h-1638v-1556zM328 328v327h983v-327h-983zM328 983v246h983v-246h-983z" />
<glyph unicode="9" d="M0 655h1311v-655h327v1556h-1638v-901zM328 983v246h983v-246h-983z" />
<glyph unicode=":" horiz-adv-x="655" d="M0 0h328v328h-328v-328zM0 410h328v327h-328v-327z" />
<glyph unicode=";" horiz-adv-x="655" d="M0 328h328v-656h-328v656zM0 410v327h328v-327h-328z" />
<glyph unicode="&#x3c;" horiz-adv-x="1310" d="M0 410v327l983 410v-328l-590 -246l590 -245v-328z" />
<glyph unicode="=" horiz-adv-x="1310" d="M0 492h983v327h-983v-327zM0 901h983v328h-983v-328z" />
<glyph unicode="&#x3e;" horiz-adv-x="1310" d="M0 0l983 410v327l-983 410v-328l590 -246l-590 -245v-328z" />
<glyph unicode="?" d="M0 1229h1311v-246h-656v-573h328v245h655v901h-1638v-327zM655 0h328v328h-328v-328z" />
<glyph unicode="@" />
<glyph unicode="A" d="M0 0h328v655h983v-655h327v1556h-1638v-1556zM328 983v246h983v-246h-983z" />
<glyph unicode="B" d="M0 0h1638v983h-327v573h-1311v-1556zM328 328v327h983v-327h-983zM328 983v246h655v-246h-655z" />
<glyph unicode="C" d="M0 0h1638v328h-1310v901h1310v327h-1638v-1556z" />
<glyph unicode="D" d="M0 0h1638v328l-327 1228h-1311v-1556zM328 328v901h723l239 -901h-962z" />
<glyph unicode="E" d="M0 0h1638v328h-1310v327h1310v328h-1310v246h1310v327h-1638v-1556z" />
<glyph unicode="F" d="M0 0h328v655h1310v328h-1310v246h1310v327h-1638v-1556z" />
<glyph unicode="G" d="M0 0h1638v983h-983v-328h656v-327h-983v901h1310v327h-1638v-1556z" />
<glyph unicode="H" d="M0 0h328v655h983v-655h327v1556h-327v-573h-983v573h-328v-1556z" />
<glyph unicode="I" horiz-adv-x="655" d="M0 0h328v1556h-328v-1556z" />
<glyph unicode="J" d="M0 0h1638v1556h-327v-1228h-1311v-328z" />
<glyph unicode="K" d="M0 0h328v655h485l436 -655h389l-540 811l540 745h-389l-418 -573h-503v573h-328v-1556z" />
<glyph unicode="L" d="M0 0h1638v328h-1310v1228h-328v-1556z" />
<glyph unicode="M" horiz-adv-x="2293" d="M0 0h328v872l491 -872h328l491 872v-872h328v1556h-328l-655 -1204l-655 1204h-328v-1556z" />
<glyph unicode="N" d="M0 0h328v1085l983 -1085h327v1556h-327v-1085l-983 1085h-328v-1556z" />
<glyph unicode="O" d="M0 0h1638v1556h-1638v-1556zM328 328v901h983v-901h-983z" />
<glyph unicode="P" d="M0 0h328v655h1310v901h-1638v-1556zM328 983v246h983v-246h-983z" />
<glyph unicode="Q" d="M0 0h1638v1556h-1310v-1146h327v819h656v-901h-1311v-328z" />
<glyph unicode="R" d="M0 0h328v655h594l327 -655h389l-327 655h327v901h-1638v-1556zM328 983v246h983v-246h-983z" />
<glyph unicode="S" d="M0 0h1638v983h-1310v246h1310v327h-1638v-901h1311v-327h-1311v-328z" />
<glyph unicode="T" d="M0 1229h655v-1229h328v1229h655v327h-1638v-327z" />
<glyph unicode="U" d="M0 0h1638v1556h-327v-1228h-983v1228h-328v-1556z" />
<glyph unicode="V" d="M0 1556l655 -1556h328l655 1556h-327l-492 -1167l-491 1167h-328z" />
<glyph unicode="W" horiz-adv-x="2293" d="M0 0h328l655 725l655 -725h328v1556h-328v-1101l-491 528h-328l-491 -528v1101h-328v-1556z" />
<glyph unicode="X" d="M0 0h389l430 543l430 -543h389l-614 778l614 778h-389l-430 -532l-430 532h-389l614 -778z" />
<glyph unicode="Y" d="M0 655h655v-655h328v655h655v901h-327v-573h-983v573h-328v-901z" />
<glyph unicode="Z" d="M0 0h1638v328h-1138l1138 901v327h-1638v-327h1141l-1141 -901v-328z" />
<glyph unicode="[" horiz-adv-x="819" d="M0 0h492v328h-164v901h164v327h-492v-1556z" />
<glyph unicode="\" horiz-adv-x="983" d="M0 1556h328l327 -1556h-327z" />
<glyph unicode="]" horiz-adv-x="819" d="M0 0v328h164v901h-164v327h492v-1556h-492z" />
<glyph unicode="^" />
<glyph unicode="_" d="M0 0h1311v328h-1311v-328z" />
<glyph unicode="`" horiz-adv-x="655" d="M0 1147h328v409h-328v-409z" />
<glyph unicode="a" d="M0 0h1638v1147h-1638v-328h1311v-82h-1311v-737zM328 328v82h983v-82h-983z" />
<glyph unicode="b" d="M0 0h1638v1147h-1310v409h-328v-1556zM328 328v491h983v-491h-983z" />
<glyph unicode="c" d="M0 0h1638v328h-1310v491h1310v328h-1638v-1147z" />
<glyph unicode="d" d="M0 0h1638v1556h-327v-409h-1311v-1147zM328 328v491h983v-491h-983z" />
<glyph unicode="e" d="M0 0h1638v328h-1310v82h1310v737h-1638v-1147zM328 737v82h983v-82h-983z" />
<glyph unicode="f" d="M0 -410h328v410h1310v328h-1310v491h1310v328h-1638v-1557z" />
<glyph unicode="g" d="M0 0h1311v-82h-1311v-328h1638v1557h-1638v-1147zM328 328v491h983v-491h-983z" />
<glyph unicode="h" d="M0 0h328v819h983v-819h327v1147h-1310v409h-328v-1556z" />
<glyph unicode="i" horiz-adv-x="655" d="M0 0h328v1147h-328v-1147z" />
<glyph unicode="j" horiz-adv-x="655" d="M-1311 -82v-328h1639v1557h-328v-1229h-1311z" />
<glyph unicode="k" d="M0 0h328v410h649l272 -410h389l-383 573l383 574h-389l-272 -410h-649v819h-328v-1556z" />
<glyph unicode="l" horiz-adv-x="655" d="M0 0h328v1556h-328v-1556z" />
<glyph unicode="m" horiz-adv-x="2293" d="M0 0h328v819h491v-819h328v819h491v-819h328v1147h-1966v-1147z" />
<glyph unicode="n" d="M0 0h328v819h983v-819h327v1147h-1638v-1147z" />
<glyph unicode="o" d="M0 0h1638v1147h-1638v-1147zM328 328v491h983v-491h-983z" />
<glyph unicode="p" d="M0 -410h328v410h1310v1147h-1638v-1557zM328 328v491h983v-491h-983z" />
<glyph unicode="q" d="M0 0h1311v-410h327v1557h-1638v-1147zM328 328v491h983v-491h-983z" />
<glyph unicode="r" d="M0 0h328v819h1310v328h-1638v-1147z" />
<glyph unicode="s" d="M0 0h1638v737h-1310v82h1310v328h-1638v-737h1311v-82h-1311v-328z" />
<glyph unicode="t" d="M0 0h1638v328h-1310v491h1310v328h-1310v409h-328v-1556z" />
<glyph unicode="u" d="M0 0h1638v1147h-327v-819h-983v819h-328v-1147z" />
<glyph unicode="v" d="M0 1147l655 -1147h328l655 1147h-348l-471 -840l-471 840h-348z" />
<glyph unicode="w" horiz-adv-x="2293" d="M0 0h1966v1147h-328v-819h-491v819h-328v-819h-491v819h-328v-1147z" />
<glyph unicode="x" d="M0 0h410l409 369l410 -369h409l-594 573l594 574h-409l-410 -369l-409 369h-410l594 -574z" />
<glyph unicode="y" d="M0 0h1311v-82h-1311v-328h1638v1557h-327v-819h-983v819h-328v-1147z" />
<glyph unicode="z" d="M0 0h1638v328h-942l942 491v328h-1638v-328h942l-942 -491v-328z" />
<glyph unicode="{" horiz-adv-x="1310" d="M0 655h328v-655h655v328h-328v901h328v327h-655v-573h-328v-328z" />
<glyph unicode="|" horiz-adv-x="655" d="M0 0h328v1556h-328v-1556z" />
<glyph unicode="}" horiz-adv-x="1310" d="M0 0v328h328v901h-328v327h655v-573h328v-328h-328v-655h-655z" />
<glyph unicode="~" />
<glyph unicode="&#xa0;" />
<glyph unicode="&#xa1;" />
<glyph unicode="&#xa2;" d="M0 0v1556h655v164h328v-164h655v-327h-655v-901h655v-328h-655v-164h-328v164h-655zM328 328h327v901h-327v-901z" />
<glyph unicode="&#xa3;" d="M0 0h1638v328h-983v327h328v328h-328v246h656v327h-983v-573h-328v-328h328v-327h-328v-328z" />
<glyph unicode="&#xa4;" />
<glyph unicode="&#xa5;" />
<glyph unicode="&#xa6;" />
<glyph unicode="&#xa7;" />
<glyph unicode="&#xa8;" />
<glyph unicode="&#xa9;" />
<glyph unicode="&#xaa;" />
<glyph unicode="&#xab;" horiz-adv-x="1310" d="M0 410v327l983 410v-328l-590 -246l590 -245v-328zM573 573l410 164v-327z" />
<glyph unicode="&#xac;" />
<glyph unicode="&#xad;" horiz-adv-x="1310" d="M0 655h983v328h-983v-328z" />
<glyph unicode="&#xae;" />
<glyph unicode="&#xaf;" />
<glyph unicode="&#x2c9;" />
<glyph unicode="&#xb0;" />
<glyph unicode="&#xb1;" />
<glyph unicode="&#xb2;" />
<glyph unicode="&#xb3;" />
<glyph unicode="&#xb4;" />
<glyph unicode="&#xb5;" />
<glyph unicode="&#x3bc;" />
<glyph unicode="&#xb6;" />
<glyph unicode="&#xb7;" />
<glyph unicode="&#x2219;" />
<glyph unicode="&#xb8;" />
<glyph unicode="&#xb9;" />
<glyph unicode="&#xba;" />
<glyph unicode="&#xbb;" horiz-adv-x="1310" d="M0 0l983 410v327l-983 410v-328l590 -246l-590 -245v-328zM0 410l410 163l-410 164v-327z" />
<glyph unicode="&#xbc;" />
<glyph unicode="&#xbd;" />
<glyph unicode="&#xbe;" />
<glyph unicode="&#xbf;" d="M0 0h1638v328h-1310v245h655v574h-328v-246h-655v-901zM655 1229h328v327h-328v-327z" />
<glyph unicode="&#xc0;" d="M0 0h328v655h983v-655h327v1556h-1638v-1556zM328 983v246h983v-246h-983zM328 1638h655v328h-655v-328z" />
<glyph unicode="&#xc1;" d="M0 0h328v655h983v-655h327v1556h-1638v-1556zM328 983v246h983v-246h-983zM655 1638h656v328h-656v-328z" />
<glyph unicode="&#xc2;" d="M0 0h328v655h983v-655h327v1556h-1638v-1556zM328 983v246h983v-246h-983z" />
<glyph unicode="&#xc3;" d="M0 0h328v655h983v-655h327v1556h-1638v-1556zM328 983v246h983v-246h-983z" />
<glyph unicode="&#xc4;" d="M0 0h328v655h983v-655h327v1556h-1638v-1556zM0 1638h328v328h-328v-328zM328 983v246h983v-246h-983zM1311 1638h327v328h-327v-328z" />
<glyph unicode="&#xc5;" d="M0 0h328v655h983v-655h327v1556h-1638v-1556zM328 983v246h983v-246h-983zM655 1638h328v328h-328v-328z" />
<glyph unicode="&#xc6;" d="M0 0h328v655h327v-655h983v328h-655v327h655v328h-655v246h655v327h-1638v-1556zM328 983v246h327v-246h-327z" />
<glyph unicode="&#xc7;" d="M0 0v1556h1638v-327h-1310v-901h1310v-328h-655v-328h-328v328h-655z" />
<glyph unicode="&#xc8;" d="M0 0h1638v328h-1310v327h1310v328h-1310v246h1310v327h-1638v-1556zM328 1638h655v328h-655v-328z" />
<glyph unicode="&#xc9;" d="M0 0h1638v328h-1310v327h1310v328h-1310v246h1310v327h-1638v-1556zM655 1638h656v328h-656v-328z" />
<glyph unicode="&#xca;" d="M0 0h1638v328h-1310v327h1310v328h-1310v246h1310v327h-1638v-1556z" />
<glyph unicode="&#xcb;" d="M0 0h1638v328h-1310v327h1310v328h-1310v246h1310v327h-1638v-1556zM0 1638h328v328h-328v-328zM1311 1638h327v328h-327v-328z" />
<glyph unicode="&#xcc;" horiz-adv-x="983" d="M0 1638h655v328h-655v-328zM328 0h327v1556h-327v-1556z" />
<glyph unicode="&#xcd;" horiz-adv-x="983" d="M0 0v1556h328v-1556h-328zM0 1638v328h655v-328h-655z" />
<glyph unicode="&#xce;" horiz-adv-x="655" d="M0 0h328v1556h-328v-1556z" />
<glyph unicode="&#xcf;" horiz-adv-x="1310" d="M0 1638h328v328h-328v-328zM328 0h327v1556h-327v-1556zM655 1638h328v328h-328v-328z" />
<glyph unicode="&#xd0;" d="M0 655v328h328v573h983l327 -1228v-328h-1310v655h-328zM655 328h635l-239 901h-396v-246h328v-328h-328v-327z" />
<glyph unicode="&#xd1;" d="M0 0h328v1085l983 -1085h327v1556h-327v-1085l-983 1085h-328v-1556z" />
<glyph unicode="&#xd2;" d="M0 0h1638v1556h-1638v-1556zM328 328v901h983v-901h-983zM328 1638h655v328h-655v-328z" />
<glyph unicode="&#xd3;" d="M0 0h1638v1556h-1638v-1556zM328 328v901h983v-901h-983zM655 1638h656v328h-656v-328z" />
<glyph unicode="&#xd4;" d="M0 0h1638v1556h-1638v-1556zM328 328v901h983v-901h-983z" />
<glyph unicode="&#xd5;" d="M0 0h1638v1556h-1638v-1556zM328 328v901h983v-901h-983z" />
<glyph unicode="&#xd6;" d="M0 0h1638v1556h-1638v-1556zM0 1638h328v328h-328v-328zM328 328v901h983v-901h-983zM1311 1638h327v328h-327v-328z" />
<glyph unicode="&#xd7;" d="M0 0h410l409 369l410 -369h409l-594 573l594 574h-409l-410 -369l-409 369h-410l594 -574z" />
<glyph unicode="&#xd8;" d="M0 0h1638v1556h-1638v-1556zM328 328l983 573v-573h-983zM328 655v574h983z" />
<glyph unicode="&#xd9;" d="M0 0h1638v1556h-327v-1228h-983v1228h-328v-1556zM328 1638h655v328h-655v-328z" />
<glyph unicode="&#xda;" d="M0 0h1638v1556h-327v-1228h-983v1228h-328v-1556zM655 1638h656v328h-656v-328z" />
<glyph unicode="&#xdb;" d="M0 0h1638v1556h-327v-1228h-983v1228h-328v-1556z" />
<glyph unicode="&#xdc;" d="M0 0h1638v1556h-327v-1228h-983v1228h-328v-1556zM0 1638h328v328h-328v-328zM1311 1638h327v328h-327v-328z" />
<glyph unicode="&#xdd;" d="M0 655h655v-655h328v655h655v901h-327v-573h-983v573h-328v-901zM655 1638h656v328h-656v-328z" />
<glyph unicode="&#xdf;" d="M0 0v1556h983v-573h655v-983h-983v328h656v327h-656v574h-327v-1229h-328z" />
<glyph unicode="&#xe0;" d="M0 0h1638v1147h-1638v-328h1311v-82h-1311v-737zM328 328v82h983v-82h-983zM328 1229h655v327h-655v-327z" />
<glyph unicode="&#xe1;" d="M0 0h1638v1147h-1638v-328h1311v-82h-1311v-737zM328 328v82h983v-82h-983zM655 1229h656v327h-656v-327z" />
<glyph unicode="&#xe2;" d="M0 0h1638v1147h-1638v-328h1311v-82h-1311v-737zM328 328v82h983v-82h-983z" />
<glyph unicode="&#xe3;" d="M0 0h1638v1147h-1638v-328h1311v-82h-1311v-737zM328 328v82h983v-82h-983z" />
<glyph unicode="&#xe4;" d="M0 0h1638v1147h-1638v-328h1311v-82h-1311v-737zM0 1229h328v327h-328v-327zM328 328v82h983v-82h-983zM1311 1229h327v327h-327v-327z" />
<glyph unicode="&#xe5;" d="M0 0h1638v1147h-1638v-328h1311v-82h-1311v-737zM328 328v82h983v-82h-983zM655 1229h328v327h-328v-327z" />
<glyph unicode="&#xe6;" d="M0 0h1638v328h-655v82h655v737h-1638v-328h655v-82h-655v-737zM328 328v82h327v-82h-327zM983 737v82h328v-82h-328z" />
<glyph unicode="&#xe7;" d="M0 0v1147h1638v-328h-1310v-491h1310v-328h-655v-328h-328v328h-655z" />
<glyph unicode="&#xe8;" d="M0 0h1638v328h-1310v82h1310v737h-1638v-1147zM328 737v82h983v-82h-983zM328 1229h655v327h-655v-327z" />
<glyph unicode="&#xe9;" d="M0 0h1638v328h-1310v82h1310v737h-1638v-1147zM328 737v82h983v-82h-983zM655 1229h656v327h-656v-327z" />
<glyph unicode="&#xea;" d="M0 0h1638v328h-1310v82h1310v737h-1638v-1147zM328 737v82h983v-82h-983z" />
<glyph unicode="&#xeb;" d="M0 0h1638v328h-1310v82h1310v737h-1638v-1147zM0 1229h328v327h-328v-327zM328 737v82h983v-82h-983zM1311 1229h327v327h-327v-327z" />
<glyph unicode="&#xec;" horiz-adv-x="983" d="M0 1229h655v327h-655v-327zM328 0h327v1147h-327v-1147z" />
<glyph unicode="&#xed;" horiz-adv-x="983" d="M0 0v1147h328v-1147h-328zM0 1229v327h655v-327h-655z" />
<glyph unicode="&#xee;" horiz-adv-x="655" d="M0 0h328v1147h-328v-1147z" />
<glyph unicode="&#xef;" horiz-adv-x="1310" d="M0 1229h328v327h-328v-327zM328 0h327v1147h-327v-1147zM655 1229h328v327h-328v-327z" />
<glyph unicode="&#xf0;" />
<glyph unicode="&#xf1;" d="M0 0h328v819h983v-819h327v1147h-1638v-1147z" />
<glyph unicode="&#xf2;" d="M0 0h1638v1147h-1638v-1147zM328 328v491h983v-491h-983zM328 1229h655v327h-655v-327z" />
<glyph unicode="&#xf3;" d="M0 0h1638v1147h-1638v-1147zM328 328v491h983v-491h-983zM655 1229h656v327h-656v-327z" />
<glyph unicode="&#xf4;" d="M0 0h1638v1147h-1638v-1147zM328 328v491h983v-491h-983z" />
<glyph unicode="&#xf5;" d="M0 0h1638v1147h-1638v-1147zM328 328v491h983v-491h-983z" />
<glyph unicode="&#xf6;" d="M0 0h1638v1147h-1638v-1147zM0 1229h328v327h-328v-327zM328 328v491h983v-491h-983zM1311 1229h327v327h-327v-327z" />
<glyph unicode="&#xf7;" />
<glyph unicode="&#xf8;" d="M0 0h1638v1147h-1638v-1147zM328 328l983 164v-164h-983zM328 655v164h983z" />
<glyph unicode="&#xf9;" d="M0 0h1638v1147h-327v-819h-983v819h-328v-1147zM328 1229h655v327h-655v-327z" />
<glyph unicode="&#xfa;" d="M0 0h1638v1147h-327v-819h-983v819h-328v-1147zM655 1229h656v327h-656v-327z" />
<glyph unicode="&#xfb;" d="M0 0h1638v1147h-327v-819h-983v819h-328v-1147z" />
<glyph unicode="&#xfc;" d="M0 0h1638v1147h-327v-819h-983v819h-328v-1147zM0 1229h328v327h-328v-327zM1311 1229h327v327h-327v-327z" />
<glyph unicode="&#xfd;" d="M0 0h1311v-82h-1311v-328h1638v1557h-327v-819h-983v819h-328v-1147zM655 1229h656v327h-656v-327z" />
<glyph unicode="&#xfe;" />
<glyph unicode="&#xff;" d="M0 0h1311v-82h-1311v-328h1638v1557h-327v-819h-983v819h-328v-1147zM0 1229h328v327h-328v-327zM1311 1229h327v327h-327v-327z" />
<glyph unicode="&#x152;" horiz-adv-x="3932" d="M0 0h1638v1556h-1638v-1556zM328 328v901h983v-901h-983zM1966 0h1638v328h-1310v327h1310v328h-1310v246h1310v327h-1638v-1556z" />
<glyph unicode="&#x153;" horiz-adv-x="3932" d="M0 0h1638v1147h-1638v-1147zM328 328v491h983v-491h-983zM1966 0h1638v328h-1310v82h1310v737h-1638v-1147zM2294 737v82h983v-82h-983z" />
<glyph unicode="&#x178;" d="M0 655h655v-655h328v655h655v901h-327v-573h-983v573h-328v-901z" />
<glyph unicode="&#x2013;" horiz-adv-x="1024" d="M205 512v205h614v-205h-614z" />
<glyph unicode="&#x2014;" horiz-adv-x="2048" d="M205 512v205h1638v-205h-1638z" />
<glyph unicode="&#x2018;" horiz-adv-x="655" d="M0 1147h328v409h-328v-409z" />
<glyph unicode="&#x2019;" horiz-adv-x="655" d="M0 1147h328v409h-328v-409z" />
<glyph unicode="&#x201c;" horiz-adv-x="1064" d="M0 1147h328v409h-328v-409zM410 1147h327v409h-327v-409z" />
<glyph unicode="&#x201d;" horiz-adv-x="1064" d="M0 1147h328v409h-328v-409zM410 1147h327v409h-327v-409z" />
<glyph unicode="&#x2026;" d="M0 0h328v328h-328v-328zM655 0h328v328h-328v-328zM1311 0h327v328h-327v-328z" />
<glyph unicode="&#x2039;" horiz-adv-x="1310" d="M0 410v327l983 410v-328l-590 -246l590 -245v-328z" />
<glyph unicode="&#x203a;" horiz-adv-x="1310" d="M0 0l983 410v327l-983 410v-328l590 -246l-590 -245v-328z" />
<glyph unicode="&#x2122;" horiz-adv-x="4259" d="M0 1229h655v-1229h328v1229h655v327h-1638v-327zM1966 0h328v872l491 -872h328l491 872v-872h328v1556h-328l-655 -1204l-655 1204h-328v-1556z" />
<glyph unicode="&#xe000;" horiz-adv-x="1145" d="M0 1145h1145v-1145h-1145v1145z" />
<glyph unicode="&#xfb01;" horiz-adv-x="2621" d="M0 -410h328v410h1310v328h-1310v491h1310v328h-1638v-1557zM1966 0h328v1147h-328v-1147z" />
<glyph unicode="&#xfb02;" horiz-adv-x="2621" d="M0 -410h328v410h1310v328h-1310v491h1310v328h-1638v-1557zM1966 0h328v1556h-328v-1556z" />
<glyph unicode="&#xfb03;" horiz-adv-x="4587" d="M0 -410h328v410h1310v328h-1310v491h1310v328h-1638v-1557zM1966 -410h328v410h1310v328h-1310v491h1310v328h-1638v-1557zM3932 0h328v1147h-328v-1147z" />
<glyph unicode="&#xfb04;" horiz-adv-x="4587" d="M0 -410h328v410h1310v328h-1310v491h1310v328h-1638v-1557zM1966 -410h328v410h1310v328h-1310v491h1310v328h-1638v-1557zM3932 0h328v1556h-328v-1556z" />
</font>
</defs>
</svg>
